<svg xmlns="http://www.w3.org/2000/svg" viewBox="0 0 400 300"><ellipse cx="200" cy="272" rx="110" ry="9" fill="#000" opacity=".07"/>
<rect x="192" y="40" width="16" height="230" fill="#6E5B49"/><rect x="192" y="40" width="5" height="230" fill="#54453A" opacity=".5"/>
<rect x="148" y="30" width="104" height="58" rx="4" fill="#2F6B3A"/><rect x="154" y="36" width="92" height="46" rx="2" fill="none" stroke="#fff" stroke-width="1.5" opacity=".7"/>
<text x="200" y="54" font-family="Arial,Helvetica,sans-serif" font-size="11" font-weight="700" fill="#fff" text-anchor="middle">PLEASE CLEAN UP</text>
<text x="200" y="70" font-family="Arial,Helvetica,sans-serif" font-size="11" font-weight="700" fill="#fff" text-anchor="middle">AFTER YOUR PET</text>
<rect x="170" y="96" width="60" height="50" rx="3" fill="#6E5B49"/><rect x="170" y="96" width="60" height="8" fill="#54453A"/><rect x="186" y="128" width="28" height="6" rx="3" fill="#27302A"/><g transform="translate(200 118) scale(1)"><g fill="#fff"><ellipse cx="0" cy="0" rx="9" ry="5"/><circle cx="9" cy="-6" r="3.6"/><rect x="-8" y="2" width="2.4" height="7"/><rect x="5" y="2" width="2.4" height="7"/><path d="M-9 -2 l-4 -4" stroke="#fff" stroke-width="2" fill="none"/></g></g>
<rect x="152" y="170" width="96" height="92" rx="3" fill="#6E5B49"/>
<rect x="152" y="185" width="96" height="2" fill="#54453A"/><rect x="152" y="200" width="96" height="2" fill="#54453A"/><rect x="152" y="215" width="96" height="2" fill="#54453A"/><rect x="152" y="230" width="96" height="2" fill="#54453A"/><rect x="152" y="245" width="96" height="2" fill="#54453A"/>
<rect x="146" y="162" width="108" height="12" rx="2" fill="#54453A"/><rect x="190" y="166" width="20" height="4" rx="2" fill="#27302A"/>
</svg>