<svg xmlns="http://www.w3.org/2000/svg" viewBox="0 0 400 300"><ellipse cx="200" cy="274" rx="90" ry="9" fill="#000" opacity=".07"/><rect x="130" y="180" width="10" height="92" fill="#9AA3AA"/><rect x="260" y="180" width="10" height="92" fill="#9AA3AA"/>
<rect x="110" y="30" width="180" height="160" rx="6" fill="#fff" stroke="#2F6B3A" stroke-width="5"/><rect x="110" y="30" width="180" height="32" rx="6" fill="#2F6B3A"/><rect x="110" y="50" width="180" height="12" fill="#2F6B3A"/>
<text x="200" y="52" font-family="Arial,Helvetica,sans-serif" font-size="14" font-weight="800" fill="#fff" text-anchor="middle">DOG PARK RULES</text>
<circle cx="130" cy="82" r="5" fill="#2F6B3A"/><rect x="142" y="79" width="118" height="6" rx="3" fill="#D3D9DD"/><circle cx="130" cy="106" r="5" fill="#2F6B3A"/><rect x="142" y="103" width="96" height="6" rx="3" fill="#D3D9DD"/><circle cx="130" cy="130" r="5" fill="#2F6B3A"/><rect x="142" y="127" width="108" height="6" rx="3" fill="#D3D9DD"/><circle cx="130" cy="154" r="5" fill="#2F6B3A"/><rect x="142" y="151" width="80" height="6" rx="3" fill="#D3D9DD"/></svg>